#Comment line ignore any data following # character 
#Hierarchical Translation and Rotation (.htr) file 
[Header]	
#Header keywords are followed by a single value 
FileType HTR		#Single word string
DataType HTRS		#Translation followed by rotation and scale data
FileVersion 1		#integer
NumSegments 84		#integer
NumFrames 2		#integer
DataFrameRate 30		#integer, data frame rate in this file
EulerRotationOrder ZYX
CalibrationUnits mm
RotationUnits Degrees
GlobalAxisofGravity Y
BoneLengthAxis Y
ScaleFactor 1.00
[SegmentNames&Hierarchy]
#CHILD	PARENT
MASTER GLOBAL
root MASTER
chest root
L_mid_tent01 root
R_mid_tent01 root
spine01 root
Bip01_Neck chest
L_humerus chest
R_humerus chest
weapon_bone chest
Bip01_Head Bip01_Neck
eye_left_bone Bip01_Head
eye_right_bone Bip01_Head
L_forearm L_humerus
L_front_hand L_forearm
L_weapon_bone L_forearm
L_front_hand01_01 L_front_hand
L_front_hand02_01 L_front_hand
L_front_hand03_01 L_front_hand
L_front_hand01_02 L_front_hand01_01
L_front_hand02_02 L_front_hand02_01
L_front_hand03_02 L_front_hand03_01
R_forearm R_humerus
R_front_hand R_forearm
R_weapon_bone R_forearm
R_front_hand01_01 R_front_hand
R_front_hand02_01 R_front_hand
R_front_hand03_01 R_front_hand
R_front_hand01_02 R_front_hand01_01
R_front_hand02_02 R_front_hand02_01
R_front_hand03_02 R_front_hand03_01
null_rope01_connect L_mid_tent01
Rope1_Seg01 null_rope01_connect
Rope1_Seg02 Rope1_Seg01
Rope1_Seg03 Rope1_Seg02
Rope1_Seg04 Rope1_Seg03
Rope1_Seg05 Rope1_Seg04
Rope1_Seg06 Rope1_Seg05
Rope1_Seg07 Rope1_Seg06
Rope1_Seg09 Rope1_Seg07
L_mid_hand01 Rope1_Seg09
L_mid_hand02 Rope1_Seg09
L_mid_hand03 Rope1_Seg09
null_rope02_connect R_mid_tent01
Rope2_Seg01 null_rope02_connect
Rope2_Seg02 Rope2_Seg01
Rope2_Seg03 Rope2_Seg02
Rope2_Seg04 Rope2_Seg03
Rope2_Seg05 Rope2_Seg04
Rope2_Seg06 Rope2_Seg05
Rope2_Seg07 Rope2_Seg06
Rope2_Seg09 Rope2_Seg07
R_mid_hand01 Rope2_Seg09
R_mid_hand02 Rope2_Seg09
R_mid_hand03 Rope2_Seg09
spine02 spine01
spine03 spine02
pelvis spine03
null_rope03_connect pelvis
null_rope04_connect pelvis
Rope3_Seg01 null_rope03_connect
Rope3_Seg02 Rope3_Seg01
Rope3_Seg03 Rope3_Seg02
Rope3_Seg04 Rope3_Seg03
Rope3_Seg05 Rope3_Seg04
Rope3_Seg06 Rope3_Seg05
Rope3_Seg07 Rope3_Seg06
Rope3_Seg08 Rope3_Seg07
Rope3_Seg09 Rope3_Seg08
R_rear_hand01 Rope3_Seg09
R_rear_hand02 Rope3_Seg09
R_rear_hand03 Rope3_Seg09
Rope4_Seg01 null_rope04_connect
Rope4_Seg02 Rope4_Seg01
Rope4_Seg03 Rope4_Seg02
Rope4_Seg04 Rope4_Seg03
Rope4_Seg05 Rope4_Seg04
Rope4_Seg06 Rope4_Seg05
Rope4_Seg07 Rope4_Seg06
Rope4_Seg08 Rope4_Seg07
Rope4_Seg09 Rope4_Seg08
L_rear_hand01 Rope4_Seg09
L_rear_hand02 Rope4_Seg09
L_rear_hand03 Rope4_Seg09
[BasePosition]
#SegmentName Tx, Ty, Tz, Rx, Ry, Rz, BoneLength
MASTER 0.000000 0.000000 0.000000 -90.000000 0.000000 0.000000 10.000000 
root 0.000000 0.000000 0.000000 0.000000 0.000000 0.000000 10.000000 
chest 0.000000 0.000000 0.000000 0.000000 0.000000 0.000000 10.000000 
L_mid_tent01 0.000000 0.000000 0.000000 0.000000 0.000000 0.000000 10.000000 
R_mid_tent01 0.000000 0.000000 0.000000 0.000000 0.000000 0.000000 10.000000 
spine01 0.000000 0.000000 0.000000 0.000000 0.000000 0.000000 10.000000 
Bip01_Neck 0.000000 0.000000 0.000000 0.000000 0.000000 0.000000 10.000000 
L_humerus 0.000000 0.000000 0.000000 0.000000 0.000000 0.000000 10.000000 
R_humerus 0.000000 0.000000 0.000000 0.000000 0.000000 0.000000 10.000000 
weapon_bone 0.000000 0.000000 0.000000 0.000000 0.000000 0.000000 10.000000 
Bip01_Head 0.000000 0.000000 0.000000 0.000000 0.000000 0.000000 10.000000 
eye_left_bone 0.000000 0.000000 0.000000 0.000000 0.000000 0.000000 10.000000 
eye_right_bone 0.000000 0.000000 0.000000 0.000000 0.000000 0.000000 10.000000 
L_forearm 0.000000 0.000000 0.000000 0.000000 0.000000 0.000000 10.000000 
L_front_hand 0.000000 0.000000 0.000000 0.000000 0.000000 0.000000 10.000000 
L_weapon_bone 0.000000 0.000000 0.000000 0.000000 0.000000 0.000000 10.000000 
L_front_hand01_01 0.000000 0.000000 0.000000 0.000000 0.000000 0.000000 10.000000 
L_front_hand02_01 0.000000 0.000000 0.000000 0.000000 0.000000 0.000000 10.000000 
L_front_hand03_01 0.000000 0.000000 0.000000 0.000000 0.000000 0.000000 10.000000 
L_front_hand01_02 0.000000 0.000000 0.000000 0.000000 0.000000 0.000000 10.000000 
L_front_hand02_02 0.000000 0.000000 0.000000 0.000000 0.000000 0.000000 10.000000 
L_front_hand03_02 0.000000 0.000000 0.000000 0.000000 0.000000 0.000000 10.000000 
R_forearm 0.000000 0.000000 0.000000 0.000000 0.000000 0.000000 10.000000 
R_front_hand 0.000000 0.000000 0.000000 0.000000 0.000000 0.000000 10.000000 
R_weapon_bone 0.000000 0.000000 0.000000 0.000000 0.000000 0.000000 10.000000 
R_front_hand01_01 0.000000 0.000000 0.000000 0.000000 0.000000 0.000000 10.000000 
R_front_hand02_01 0.000000 0.000000 0.000000 0.000000 0.000000 0.000000 10.000000 
R_front_hand03_01 0.000000 0.000000 0.000000 0.000000 0.000000 0.000000 10.000000 
R_front_hand01_02 0.000000 0.000000 0.000000 0.000000 0.000000 0.000000 10.000000 
R_front_hand02_02 0.000000 0.000000 0.000000 0.000000 0.000000 0.000000 10.000000 
R_front_hand03_02 0.000000 0.000000 0.000000 0.000000 0.000000 0.000000 10.000000 
null_rope01_connect 0.000000 0.000000 0.000000 0.000000 0.000000 0.000000 10.000000 
Rope1_Seg01 0.000000 0.000000 0.000000 0.000000 0.000000 0.000000 10.000000 
Rope1_Seg02 0.000000 0.000000 0.000000 0.000000 0.000000 0.000000 10.000000 
Rope1_Seg03 0.000000 0.000000 0.000000 0.000000 0.000000 0.000000 10.000000 
Rope1_Seg04 0.000000 0.000000 0.000000 0.000000 0.000000 0.000000 10.000000 
Rope1_Seg05 0.000000 0.000000 0.000000 0.000000 0.000000 0.000000 10.000000 
Rope1_Seg06 0.000000 0.000000 0.000000 0.000000 0.000000 0.000000 10.000000 
Rope1_Seg07 0.000000 0.000000 0.000000 0.000000 0.000000 0.000000 10.000000 
Rope1_Seg09 0.000000 0.000000 0.000000 0.000000 0.000000 0.000000 10.000000 
L_mid_hand01 0.000000 0.000000 0.000000 0.000000 0.000000 0.000000 10.000000 
L_mid_hand02 0.000000 0.000000 0.000000 0.000000 0.000000 0.000000 10.000000 
L_mid_hand03 0.000000 0.000000 0.000000 0.000000 0.000000 0.000000 10.000000 
null_rope02_connect 0.000000 0.000000 0.000000 0.000000 0.000000 0.000000 10.000000 
Rope2_Seg01 0.000000 0.000000 0.000000 0.000000 0.000000 0.000000 10.000000 
Rope2_Seg02 0.000000 0.000000 0.000000 0.000000 0.000000 0.000000 10.000000 
Rope2_Seg03 0.000000 0.000000 0.000000 0.000000 0.000000 0.000000 10.000000 
Rope2_Seg04 0.000000 0.000000 0.000000 0.000000 0.000000 0.000000 10.000000 
Rope2_Seg05 0.000000 0.000000 0.000000 0.000000 0.000000 0.000000 10.000000 
Rope2_Seg06 0.000000 0.000000 0.000000 0.000000 0.000000 0.000000 10.000000 
Rope2_Seg07 0.000000 0.000000 0.000000 0.000000 0.000000 0.000000 10.000000 
Rope2_Seg09 0.000000 0.000000 0.000000 0.000000 0.000000 0.000000 10.000000 
R_mid_hand01 0.000000 0.000000 0.000000 0.000000 0.000000 0.000000 10.000000 
R_mid_hand02 0.000000 0.000000 0.000000 0.000000 0.000000 0.000000 10.000000 
R_mid_hand03 0.000000 0.000000 0.000000 0.000000 0.000000 0.000000 10.000000 
spine02 0.000000 0.000000 0.000000 0.000000 0.000000 0.000000 10.000000 
spine03 0.000000 0.000000 0.000000 0.000000 0.000000 0.000000 10.000000 
pelvis 0.000000 0.000000 0.000000 0.000000 0.000000 0.000000 10.000000 
null_rope03_connect 0.000000 0.000000 0.000000 0.000000 0.000000 0.000000 10.000000 
null_rope04_connect 0.000000 0.000000 0.000000 0.000000 0.000000 0.000000 10.000000 
Rope3_Seg01 0.000000 0.000000 0.000000 0.000000 0.000000 0.000000 10.000000 
Rope3_Seg02 0.000000 0.000000 0.000000 0.000000 0.000000 0.000000 10.000000 
Rope3_Seg03 0.000000 0.000000 0.000000 0.000000 0.000000 0.000000 10.000000 
Rope3_Seg04 0.000000 0.000000 0.000000 0.000000 0.000000 0.000000 10.000000 
Rope3_Seg05 0.000000 0.000000 0.000000 0.000000 0.000000 0.000000 10.000000 
Rope3_Seg06 0.000000 0.000000 0.000000 0.000000 0.000000 0.000000 10.000000 
Rope3_Seg07 0.000000 0.000000 0.000000 0.000000 0.000000 0.000000 10.000000 
Rope3_Seg08 0.000000 0.000000 0.000000 0.000000 0.000000 0.000000 10.000000 
Rope3_Seg09 0.000000 0.000000 0.000000 0.000000 0.000000 0.000000 10.000000 
R_rear_hand01 0.000000 0.000000 0.000000 0.000000 0.000000 0.000000 10.000000 
R_rear_hand02 0.000000 0.000000 0.000000 0.000000 0.000000 0.000000 10.000000 
R_rear_hand03 0.000000 0.000000 0.000000 0.000000 0.000000 0.000000 10.000000 
Rope4_Seg01 0.000000 0.000000 0.000000 0.000000 0.000000 0.000000 10.000000 
Rope4_Seg02 0.000000 0.000000 0.000000 0.000000 0.000000 0.000000 10.000000 
Rope4_Seg03 0.000000 0.000000 0.000000 0.000000 0.000000 0.000000 10.000000 
Rope4_Seg04 0.000000 0.000000 0.000000 0.000000 0.000000 0.000000 10.000000 
Rope4_Seg05 0.000000 0.000000 0.000000 0.000000 0.000000 0.000000 10.000000 
Rope4_Seg06 0.000000 0.000000 0.000000 0.000000 0.000000 0.000000 10.000000 
Rope4_Seg07 0.000000 0.000000 0.000000 0.000000 0.000000 0.000000 10.000000 
Rope4_Seg08 0.000000 0.000000 0.000000 0.000000 0.000000 0.000000 10.000000 
Rope4_Seg09 0.000000 0.000000 0.000000 0.000000 0.000000 0.000000 10.000000 
L_rear_hand01 0.000000 0.000000 0.000000 0.000000 0.000000 0.000000 10.000000 
L_rear_hand02 0.000000 0.000000 0.000000 0.000000 0.000000 0.000000 10.000000 
L_rear_hand03 0.000000 0.000000 0.000000 0.000000 0.000000 0.000000 10.000000 
#Beginning of Data. Separated by tabs
#Fr	Tx	Ty	Tz	Rx	Ry	Rz	SF
[MASTER]
42 -115.823105 4088.390381 352.187897 0.001660 0.001660 0.001660 4105.165527
43 -115.823105 4087.880615 352.164459 0.001660 0.001660 0.001660 4104.656250
[root]
42 2.696667 444.668884 1104.892578 -96.235023 -37.029205 -86.953651 1191.018677
43 2.696667 444.668884 1104.892578 -96.235016 -37.029194 -86.953636 1191.018677
[chest]
42 -84.512650 -34.090519 0.000000 -11.586846 -25.327751 150.572784 91.129311
43 -84.512650 -34.090519 0.000000 -11.097186 -24.991188 149.958786 91.129311
[L_mid_tent01]
42 27.299170 22.179003 -249.918701 -12.684444 28.757204 42.599560 252.381683
43 27.299171 22.178999 -249.918701 -13.402356 27.950754 40.784798 252.381683
[R_mid_tent01]
42 23.228794 24.509907 226.238495 -176.910629 -27.354950 44.319244 228.744751
43 23.228794 24.509907 226.238495 -176.143768 -26.938990 43.098656 228.744751
[spine01]
42 -0.361383 -0.195265 0.000000 -0.000001 -0.000007 22.052340 0.410763
43 -0.361383 -0.195265 0.000000 -0.000001 -0.000007 22.052340 0.410763
[Bip01_Neck]
42 165.484543 71.581718 0.000119 176.643677 -1.657967 43.431911 180.302734
43 165.484543 71.581718 0.000119 176.643677 -1.657967 43.431911 180.302734
[L_humerus]
42 -13.983130 -135.272980 -120.471481 34.997131 82.977303 125.436424 181.680161
43 -13.983130 -135.272980 -120.471481 28.553276 82.280602 118.957924 181.680161
[R_humerus]
42 -13.983309 -135.273102 125.287651 47.754841 -87.660835 47.295048 184.909012
43 -13.983309 -135.273102 125.287651 39.156490 -86.585800 55.921383 184.909012
[weapon_bone]
42 235.964890 -300.705902 0.000000 0.000000 -89.951546 -128.212341 382.234833
43 235.964890 -300.705902 0.000000 0.000000 -89.951546 -128.212341 382.234833
[Bip01_Head]
42 203.285919 162.408493 31.616484 23.806808 3.341907 -49.228703 262.109283
43 203.285919 162.408493 31.616484 23.806795 3.341905 -49.228699 262.109283
[eye_left_bone]
42 -24.626970 125.451866 -64.772606 0.000000 -90.000000 -99.840431 143.318359
43 -24.626970 125.451866 -64.772606 0.000000 -90.000000 -99.840431 143.318359
[eye_right_bone]
42 -24.626970 125.451866 64.327362 0.000000 -89.965736 80.156380 143.117676
43 -24.626970 125.451866 64.327362 0.000000 -89.965736 80.156380 143.117676
[L_forearm]
42 322.776093 0.000000 -0.000119 0.000190 -0.002340 -99.279655 322.776093
43 322.776093 0.000000 -0.000119 0.000168 -0.002341 -98.191353 322.776093
[L_front_hand]
42 241.149185 -0.042021 -3.300071 0.836591 -1.835726 -27.423458 241.171753
43 241.149185 -0.042021 -3.300071 0.836591 -1.835726 -27.423458 241.171753
[L_weapon_bone]
42 156.183838 0.000000 0.000000 0.000014 0.000007 0.000001 156.183838
43 156.183838 0.000000 0.000000 0.000014 0.000007 0.000001 156.183838
[L_front_hand01_01]
42 86.095154 20.947098 -0.655860 -0.366594 -0.477154 75.385574 88.609184
43 86.095154 20.947098 -0.655860 -0.366594 -0.477154 75.385574 88.609184
[L_front_hand02_01]
42 86.935165 -11.437475 24.513514 154.399796 -59.883835 -61.369587 91.046425
43 86.935165 -11.437475 24.513514 154.399796 -59.883835 -61.369587 91.046425
[L_front_hand03_01]
42 86.637497 -14.123976 -20.424902 -153.913849 58.118122 -62.702866 90.126129
43 86.637497 -14.123976 -20.424902 -153.913879 58.118130 -62.702892 90.126129
[L_front_hand01_02]
42 71.020905 -0.000179 0.000030 0.000334 -0.002323 -106.379684 71.020905
43 71.020905 -0.000179 0.000030 0.000334 -0.002323 -106.379684 71.020905
[L_front_hand02_02]
42 71.020927 -0.000119 0.000060 0.000334 -0.002323 -106.379684 71.020927
43 71.020927 -0.000119 0.000060 0.000334 -0.002323 -106.379684 71.020927
[L_front_hand03_02]
42 71.020905 -0.000060 0.000060 0.000334 -0.002323 -106.379684 71.020905
43 71.020905 -0.000060 0.000060 0.000334 -0.002323 -106.379684 71.020905
[R_forearm]
42 322.776428 -0.000060 0.000030 0.208507 0.026250 -98.001236 322.776428
43 322.776428 -0.000060 0.000030 0.212458 0.020884 -96.856003 322.776428
[R_front_hand]
42 238.847015 -0.006795 2.210259 42.936222 -10.646152 -26.312963 238.857239
43 238.847015 -0.006795 2.210259 42.936222 -10.646152 -26.312963 238.857239
[R_weapon_bone]
42 155.664093 0.002503 -0.000030 0.003487 0.001180 -90.988930 155.664078
43 155.664093 0.002503 -0.000030 0.003487 0.001180 -90.988930 155.664078
[R_front_hand01_01]
42 87.624611 14.231146 22.918642 -154.633499 -59.950619 61.746044 91.683487
43 87.624611 14.231146 22.918642 -154.633499 -59.950626 61.746052 91.683487
[R_front_hand02_01]
42 89.356956 14.367283 -19.491137 154.602661 58.302849 63.744389 92.579636
43 89.356956 14.367283 -19.491137 154.602676 58.302864 63.744389 92.579636
[R_front_hand03_01]
42 87.286232 -22.307278 -0.143439 0.162155 -0.423168 -75.767921 90.091743
43 87.286232 -22.307278 -0.143439 0.162155 -0.423168 -75.767921 90.091743
[R_front_hand01_02]
42 71.020905 0.000060 0.000119 0.002323 -0.000334 106.381714 71.020905
43 71.020905 0.000060 0.000119 0.002323 -0.000334 106.381714 71.020905
[R_front_hand02_02]
42 71.020844 -0.000030 -0.000119 0.002323 -0.000334 106.381714 71.020836
43 71.020844 -0.000030 -0.000119 0.002323 -0.000334 106.381714 71.020836
[R_front_hand03_02]
42 71.020905 0.000000 0.000030 0.002323 -0.000334 106.381714 71.020905
43 71.020905 0.000000 0.000030 0.002323 -0.000334 106.381714 71.020905
[null_rope01_connect]
42 328.732483 0.000000 -0.000238 -126.331100 -55.446621 -151.258240 328.732483
43 328.732483 0.000000 -0.000238 -126.482086 -55.887653 -149.393158 328.732483
[Rope1_Seg01]
42 0.000023 -0.000436 0.000000 -16.709745 32.893318 158.385010 0.000436
43 0.000022 -0.000445 0.000000 -17.087305 33.766663 157.825165 0.000446
[Rope1_Seg02]
42 139.999863 -0.000179 0.000000 -0.125680 -0.235616 15.704150 139.999863
43 139.999863 -0.000179 0.000000 -0.323108 -0.470374 14.657578 139.999863
[Rope1_Seg03]
42 139.999924 0.000060 -0.000060 0.213699 -5.683259 12.135763 139.999924
43 139.999924 0.000060 -0.000060 0.209061 -5.517473 12.703223 139.999924
[Rope1_Seg04]
42 139.999924 -0.000060 -0.000119 6.575766 2.140315 17.703415 139.999924
43 139.999924 -0.000060 -0.000119 4.794182 0.080361 16.045927 139.999924
[Rope1_Seg05]
42 139.999832 0.000119 -0.000060 43.253815 27.582106 47.511299 139.999832
43 139.999832 0.000119 -0.000060 42.748035 26.273848 47.744274 139.999832
[Rope1_Seg06]
42 139.999954 0.000119 -0.000060 9.396238 18.171591 8.567170 139.999954
43 139.999954 0.000119 -0.000060 11.032071 20.054956 9.986454 139.999954
[Rope1_Seg07]
42 139.999985 0.000060 0.000000 2.105863 6.397988 2.101172 139.999985
43 139.999985 0.000060 0.000000 2.242650 6.690691 2.223931 139.999985
[Rope1_Seg09]
42 121.602913 0.000119 -0.000089 -89.793175 -1.359789 0.847147 121.602913
43 121.602913 0.000119 -0.000089 -89.793175 -1.359789 0.847147 121.602913
[L_mid_hand01]
42 103.859421 1.038730 8.195221 130.544373 -67.584534 -38.866943 104.187431
43 103.859421 1.038730 8.195221 130.544373 -67.584534 -38.866943 104.187431
[L_mid_hand02]
42 105.572853 -4.139662 -10.864139 -168.923172 43.409309 -73.498886 106.211075
43 105.572853 -4.139662 -10.864139 -168.923172 43.409309 -73.498886 106.211075
[L_mid_hand03]
42 104.641464 17.579376 -3.913581 -6.012627 17.808174 74.893669 106.179977
43 104.641464 17.579376 -3.913581 -6.012627 17.808174 74.893669 106.179977
[null_rope02_connect]
42 328.732849 0.000179 -0.000119 -94.324203 63.984093 4.722116 328.732849
43 328.732849 0.000179 -0.000119 -94.748703 64.346611 3.232060 328.732849
[Rope2_Seg01]
42 0.000095 0.000459 0.000000 80.633186 30.736498 15.472812 0.000469
43 0.000095 0.000467 0.000000 80.647682 31.268381 15.678358 0.000477
[Rope2_Seg02]
42 139.999741 -0.000060 -0.000119 -1.355476 -4.037322 -3.638284 139.999756
43 139.999741 -0.000060 -0.000119 -1.268457 -3.942282 -3.518472 139.999756
[Rope2_Seg03]
42 140.000107 0.000030 0.000000 -2.367065 -5.998012 -5.707140 140.000107
43 140.000107 0.000030 0.000000 -2.216476 -5.846820 -5.494224 140.000107
[Rope2_Seg04]
42 139.999802 0.000000 -0.000060 -4.764863 -9.621980 -10.392346 139.999802
43 139.999802 0.000000 -0.000060 -4.457094 -9.370407 -9.891405 139.999802
[Rope2_Seg05]
42 139.999985 -0.000060 0.000119 -9.512729 -14.131466 -20.548662 139.999985
43 139.999985 -0.000060 0.000119 -9.279009 -14.376731 -20.213652 139.999985
[Rope2_Seg06]
42 139.999893 -0.000030 -0.000119 -7.992916 -9.270329 -15.006102 139.999893
43 139.999893 -0.000030 -0.000119 -8.201594 -9.613015 -15.467636 139.999893
[Rope2_Seg07]
42 139.999893 0.000060 -0.000060 -5.601830 -7.542568 -8.276385 139.999893
43 139.999893 0.000060 -0.000060 -5.513400 -7.415246 -8.158068 139.999893
[Rope2_Seg09]
42 121.338966 0.000089 -0.000060 33.793236 -1.359788 -0.847141 121.338966
43 121.338966 0.000089 -0.000060 33.793236 -1.359788 -0.847141 121.338966
[R_mid_hand01]
42 104.680779 11.144459 -10.335981 -16.212063 45.237247 70.462852 105.778534
43 104.680779 11.144459 -10.335981 -16.212059 45.237240 70.462852 105.778534
[R_mid_hand02]
42 104.070427 2.443552 8.231699 49.067368 -67.749771 39.286453 104.424065
43 104.070427 2.443552 8.231699 49.067387 -67.749794 39.286469 104.424065
[R_mid_hand03]
42 106.028137 -11.221827 -5.996406 -177.101105 15.551026 -76.585571 106.788818
43 106.028137 -11.221827 -5.996406 -177.101105 15.551026 -76.585571 106.788818
[spine02]
42 129.756927 0.001550 0.000119 0.439804 -4.036199 -14.095846 129.756927
43 129.756927 0.001550 0.000119 0.432620 -4.037032 -13.996500 129.756927
[spine03]
42 78.613945 0.081741 -4.898993 1.946156 3.806280 17.208801 78.766487
43 78.613945 0.081743 -4.898993 1.942275 3.808257 17.147970 78.766487
[pelvis]
42 169.435242 0.051022 0.000000 -0.064579 -0.179186 15.573096 169.435257
43 169.435242 0.051022 0.000000 -0.063936 -0.179317 15.447363 169.435257
[null_rope03_connect]
42 -1.257226 -2.466202 137.391083 -178.314484 -86.079437 -95.277077 137.418976
43 -1.257226 -2.466202 137.391083 -178.246384 -86.073441 -95.255974 137.418976
[null_rope04_connect]
42 -1.259640 -2.480268 -137.844437 -178.314484 -86.079437 -95.277077 137.872513
43 -1.259640 -2.480268 -137.844437 -178.246384 -86.073441 -95.255974 137.872513
[Rope3_Seg01]
42 0.000000 0.000000 0.000000 -92.240433 -73.503586 49.362614 0.000000
43 0.000000 0.000000 0.000000 -92.289841 -73.498825 49.415108 0.000000
[Rope3_Seg02]
42 139.999924 -0.000119 0.000060 0.375832 18.482437 -1.149795 139.999924
43 139.999924 -0.000119 0.000060 0.371456 18.445299 -1.148061 139.999924
[Rope3_Seg03]
42 139.999924 -0.000119 0.000119 5.702744 25.643412 1.721474 139.999924
43 139.999924 -0.000119 0.000119 5.691439 25.644897 1.710720 139.999924
[Rope3_Seg04]
42 139.999924 0.000119 0.000000 8.902138 21.477678 -3.258318 139.999924
43 139.999924 0.000119 0.000000 8.899235 21.488735 -3.225846 139.999924
[Rope3_Seg05]
42 139.999924 -0.000238 0.000060 8.027153 30.085344 -33.041759 139.999924
43 139.999924 -0.000238 0.000060 8.048442 30.087488 -32.997150 139.999924
[Rope3_Seg06]
42 139.999893 -0.000119 -0.000060 0.940652 12.666159 -23.440304 139.999893
43 139.999893 -0.000119 -0.000060 0.946485 12.693336 -23.487661 139.999893
[Rope3_Seg07]
42 139.999771 0.000060 -0.000119 0.027441 4.486474 -8.359401 139.999771
43 139.999771 0.000060 -0.000119 0.027541 4.491767 -8.369336 139.999771
[Rope3_Seg08]
42 139.999985 -0.000060 0.000000 0.167826 2.083896 -3.924454 139.999985
43 139.999985 -0.000060 0.000000 0.167703 2.085647 -3.927949 139.999985
[Rope3_Seg09]
42 90.185997 -0.000179 -0.000060 89.793228 -1.359877 -0.847183 90.185997
43 90.185997 -0.000179 -0.000060 89.793228 -1.359877 -0.847183 90.185997
[R_rear_hand01]
42 103.366196 -6.073594 -10.757982 -177.714203 24.565960 -73.910950 104.101845
43 103.366196 -6.073594 -10.757982 -177.714203 24.565960 -73.910950 104.101845
[R_rear_hand02]
42 100.509819 12.039542 -7.992327 -12.874829 36.868488 72.167213 101.543350
43 100.509819 12.039542 -7.992327 -12.874834 36.868492 72.167213 101.543350
[R_rear_hand03]
42 101.539970 5.215704 5.435467 71.484581 -71.816628 21.513813 101.819031
43 101.539970 5.215704 5.435467 71.484627 -71.816643 21.513817 101.819031
[Rope4_Seg01]
42 0.000010 0.000038 -0.000114 -17.545111 -37.024448 161.626312 0.000121
43 0.000010 0.000038 -0.000114 -17.111614 -36.835209 161.273163 0.000121
[Rope4_Seg02]
42 139.999985 0.000060 0.000119 -12.816227 9.641426 18.752413 139.999985
43 139.999985 0.000060 0.000119 -12.762670 9.473392 18.574780 139.999985
[Rope4_Seg03]
42 139.999924 0.000000 -0.000238 -9.485529 9.519096 10.382398 139.999924
43 139.999924 0.000000 -0.000238 -10.246722 9.208053 10.736008 139.999924
[Rope4_Seg04]
42 139.999985 0.000000 0.000119 -32.761482 -3.235682 15.409860 139.999985
43 139.999985 0.000000 0.000119 -31.217062 -2.691165 14.749069 139.999985
[Rope4_Seg05]
42 139.999802 -0.000060 -0.000119 -29.729990 -32.984837 16.671078 139.999802
43 139.999802 -0.000060 -0.000119 -30.427565 -31.972403 17.019047 139.999802
[Rope4_Seg06]
42 139.999924 0.000000 0.000060 -3.068708 -18.345263 -0.099056 139.999924
43 139.999924 0.000000 0.000060 -3.360928 -19.042290 -0.046516 139.999924
[Rope4_Seg07]
42 139.999802 0.000000 0.000000 -0.505984 -7.749918 -0.140864 139.999802
43 139.999802 0.000000 0.000000 -0.557463 -7.928431 -0.134872 139.999802
[Rope4_Seg08]
42 139.999924 0.000000 0.000119 -1.627682 -4.039278 -0.107974 139.999924
43 139.999924 0.000000 0.000119 -1.642331 -4.121023 -0.112474 139.999924
[Rope4_Seg09]
42 90.185791 0.000060 0.000060 -135.617828 2.228885 0.850567 90.185791
43 90.185791 0.000060 0.000060 -135.617828 2.228885 0.850567 90.185791
[L_rear_hand01]
42 101.696655 -8.392275 -7.654577 -12.874829 -36.868488 107.832764 102.329041
43 101.696655 -8.392275 -7.654577 -12.874829 -36.868488 107.832764 102.329041
[L_rear_hand02]
42 102.726799 -1.568258 5.773216 71.484581 71.816628 158.486160 102.900848
43 102.726799 -1.568258 5.773216 71.484581 71.816628 158.486160 102.900848
[L_rear_hand03]
42 104.552910 9.721220 -10.420293 -177.714203 -24.565960 -106.089035 105.519653
43 104.552910 9.721220 -10.420293 -177.714203 -24.565960 -106.089035 105.519653
